<svg width="26" height="22" viewBox="0 0 26 22" fill="none" xmlns="http://www.w3.org/2000/svg">
<path fill-rule="evenodd" clip-rule="evenodd" d="M7.72996 0.666687H18.2704C19.3724 0.666677 20.2613 0.666669 20.9807 0.726411C21.7215 0.787933 22.3717 0.917943 22.9717 1.22962C23.8849 1.704 24.6295 2.4486 25.1039 3.36182C25.4156 3.96182 25.5456 4.61203 25.6071 5.35285C25.6668 6.07225 25.6668 6.96113 25.6668 8.06318V13.9369C25.6668 15.0389 25.6668 15.9278 25.6071 16.6472C25.5456 17.388 25.4156 18.0382 25.1039 18.6382C24.6295 19.5514 23.8849 20.296 22.9717 20.7704C22.3717 21.0821 21.7215 21.2121 20.9807 21.2736C20.2613 21.3334 19.3724 21.3334 18.2703 21.3334H7.72999C6.62794 21.3334 5.73906 21.3334 5.01966 21.2736C4.27884 21.2121 3.62863 21.0821 3.02862 20.7704C2.11541 20.296 1.37081 19.5514 0.896429 18.6382C0.584752 18.0382 0.454742 17.388 0.39322 16.6472C0.333478 15.9278 0.333486 15.0389 0.333496 13.9369V8.06315C0.333486 6.96111 0.333478 6.07224 0.39322 5.35285C0.454742 4.61203 0.584752 3.96182 0.896429 3.36182C1.37081 2.4486 2.11541 1.704 3.02862 1.22962C3.62863 0.917943 4.27884 0.787933 5.01966 0.726411C5.73905 0.666669 6.62792 0.666677 7.72996 0.666687ZM3.9556 3.00185C5.3404 3.03721 6.66486 3.58545 7.67042 4.54312L11.4691 8.16094C11.8755 8.548 12.1376 8.79652 12.3524 8.9702C12.5576 9.13609 12.6542 9.17804 12.7077 9.1944C12.8983 9.25269 13.102 9.25269 13.2926 9.1944C13.3461 9.17804 13.4427 9.13609 13.6479 8.9702C13.8627 8.79652 14.1248 8.548 14.5312 8.16094L18.3299 4.54313C19.3355 3.58545 20.6599 3.03721 22.0447 3.00185C21.7784 2.86459 21.4262 2.7703 20.8151 2.71955C20.1883 2.66749 19.3826 2.66669 18.2268 2.66669H7.7735C6.61773 2.66669 5.81205 2.66749 5.18518 2.71955C4.57413 2.7703 4.22195 2.86459 3.9556 3.00185ZM23.5507 4.99876C23.534 4.9996 23.5171 5.00002 23.5002 5.00002H22.1877C21.2649 5.00002 20.3774 5.35499 19.7092 5.9914L15.8829 9.6355C15.5119 9.98886 15.1909 10.2946 14.9052 10.5255C14.6029 10.77 14.2761 10.9851 13.8775 11.107C13.3057 11.2818 12.6946 11.2818 12.1228 11.107C11.7242 10.9851 11.3975 10.77 11.0951 10.5255C10.8094 10.2946 10.4884 9.98885 10.1174 9.63547L6.29111 5.9914C5.62288 5.35499 4.73545 5.00002 3.81266 5.00002H2.50016C2.48321 5.00002 2.46635 4.9996 2.4496 4.99876C2.42394 5.14859 2.40285 5.31981 2.38636 5.51837C2.3343 6.14524 2.3335 6.95092 2.3335 8.10669V13.8934C2.3335 15.0491 2.3343 15.8548 2.38636 16.4817C2.43742 17.0966 2.53259 17.4493 2.67126 17.7163C2.95588 18.2642 3.40264 18.711 3.95057 18.9956C4.21752 19.1343 4.57028 19.2294 5.18518 19.2805C5.81206 19.3326 6.61773 19.3334 7.7735 19.3334H18.2268C19.3826 19.3334 20.1883 19.3326 20.8151 19.2805C21.43 19.2294 21.7828 19.1343 22.0498 18.9956C22.5977 18.711 23.0444 18.2642 23.3291 17.7163C23.4677 17.4493 23.5629 17.0966 23.614 16.4817C23.666 15.8548 23.6668 15.0491 23.6668 13.8934V8.10669C23.6668 6.95092 23.666 6.14524 23.614 5.51837C23.5975 5.31981 23.5764 5.14859 23.5507 4.99876Z" fill="#5E5B5B"/>
</svg>
