<svg width="57" height="40" viewBox="0 0 57 40" fill="none" xmlns="http://www.w3.org/2000/svg">
<rect x="0.5" width="56" height="40" rx="20" fill="#0000FE"/>
<path fill-rule="evenodd" clip-rule="evenodd" d="M28.7797 11.7158C28.5971 11.6626 28.4031 11.6626 28.2205 11.7158C28.1679 11.7311 28.0755 11.7694 27.879 11.9182C27.6724 12.0746 27.4194 12.2985 27.0252 12.649L21.7856 17.3064C21.1432 17.8774 20.9611 18.0496 20.8345 18.24C20.7127 18.4232 20.622 18.6252 20.566 18.8379C20.5078 19.0591 20.5001 19.3095 20.5001 20.169V24C20.5001 24.9456 20.5006 25.6047 20.5358 26.1205C20.5704 26.6275 20.6351 26.9227 20.7284 27.148C21.0329 27.8831 21.6169 28.4672 22.352 28.7716C22.5774 28.865 22.8726 28.9297 23.3795 28.9643C23.8954 28.9995 24.5545 29 25.5001 29H31.5001C32.4456 29 33.1047 28.9995 33.6206 28.9643C34.1275 28.9297 34.4227 28.865 34.6481 28.7716C35.3832 28.4672 35.9672 27.8831 36.2717 27.148C36.3651 26.9227 36.4297 26.6275 36.4643 26.1205C36.4995 25.6047 36.5001 24.9456 36.5001 24V20.169C36.5001 19.3095 36.4924 19.0591 36.4342 18.8379C36.3781 18.6252 36.2874 18.4232 36.1656 18.24C36.039 18.0496 35.8569 17.8774 35.2146 17.3064L29.975 12.649C29.5808 12.2985 29.3278 12.0746 29.1211 11.9182C28.9246 11.7694 28.8322 11.7311 28.7797 11.7158ZM27.6612 9.79556C28.2091 9.63602 28.7911 9.63602 29.3389 9.79556C29.719 9.90627 30.0342 10.1009 30.3284 10.3236C30.6054 10.5334 30.9173 10.8106 31.2765 11.1299L36.5433 15.8116C36.5717 15.8368 36.5997 15.8616 36.6273 15.8862C37.149 16.3494 37.5431 16.6993 37.8312 17.1328C38.0748 17.4992 38.2562 17.9032 38.3682 18.3287C38.5008 18.832 38.5005 19.359 38.5001 20.0566C38.5001 20.0936 38.5001 20.131 38.5001 20.169V24.0355C38.5001 24.9373 38.5001 25.6647 38.4597 26.2567C38.4182 26.8654 38.3306 27.4037 38.1195 27.9134C37.612 29.1386 36.6386 30.1119 35.4135 30.6194C34.9038 30.8305 34.3655 30.9181 33.7568 30.9596C33.1648 31 32.4374 31 31.5356 31H25.4646C24.5628 31 23.8354 31 23.2434 30.9596C22.6346 30.9181 22.0964 30.8305 21.5867 30.6194C20.3615 30.1119 19.3881 29.1385 18.8807 27.9134C18.6696 27.4037 18.582 26.8654 18.5405 26.2567C18.5001 25.6647 18.5001 24.9373 18.5001 24.0355L18.5001 20.169C18.5001 20.131 18.5001 20.0936 18.5 20.0566C18.4997 19.359 18.4994 18.832 18.6319 18.3287C18.7439 17.9032 18.9254 17.4992 19.169 17.1328C19.4571 16.6993 19.8512 16.3494 20.3728 15.8862C20.4005 15.8617 20.4285 15.8368 20.4568 15.8116L25.7237 11.13C26.0829 10.8106 26.3948 10.5334 26.6718 10.3236C26.9659 10.1009 27.2811 9.90627 27.6612 9.79556Z" fill="white"/>
</svg>
