<svg width="22" height="26" viewBox="0 0 22 26" fill="none" xmlns="http://www.w3.org/2000/svg">
<path fill-rule="evenodd" clip-rule="evenodd" d="M10.3332 2.33331C8.67632 2.33331 7.33317 3.67646 7.33317 5.33331V9.49998C7.33317 9.55704 7.32839 9.61298 7.31921 9.66742C7.55568 9.66664 7.8034 9.66664 8.06295 9.66665H13.9367C14.1963 9.66664 14.444 9.66664 14.6805 9.66742C14.6713 9.61298 14.6665 9.55704 14.6665 9.49998V5.33331C14.6665 3.67646 13.3234 2.33331 11.6665 2.33331H10.3332ZM16.6409 9.72586C16.6576 9.65327 16.6665 9.57766 16.6665 9.49998V5.33331C16.6665 2.57189 14.4279 0.333313 11.6665 0.333313H10.3332C7.57175 0.333313 5.33317 2.57189 5.33317 5.33331V9.49998C5.33317 9.57766 5.34203 9.65327 5.35879 9.72586C5.35675 9.72603 5.35471 9.7262 5.35267 9.72637C4.61185 9.78789 3.96164 9.9179 3.36163 10.2296C2.44842 10.704 1.70381 11.4486 1.22944 12.3618C0.91776 12.9618 0.78775 13.612 0.726228 14.3528C0.666486 15.0722 0.666494 15.9611 0.666504 17.0631V18.2702C0.666494 19.3722 0.666486 20.2611 0.726228 20.9805C0.78775 21.7213 0.91776 22.3715 1.22944 22.9715C1.70381 23.8847 2.44842 24.6293 3.36163 25.1037C3.96164 25.4154 4.61185 25.5454 5.35267 25.6069C6.07207 25.6667 6.96094 25.6667 8.06299 25.6666H13.9367C15.0387 25.6667 15.9276 25.6667 16.647 25.6069C17.3878 25.5454 18.038 25.4154 18.638 25.1037C19.5513 24.6293 20.2959 23.8847 20.7702 22.9715C21.0819 22.3715 21.2119 21.7213 21.2734 20.9805C21.3332 20.2611 21.3332 19.3722 21.3332 18.2702V17.0631C21.3332 15.9611 21.3332 15.0722 21.2734 14.3528C21.2119 13.612 21.0819 12.9618 20.7702 12.3618C20.2959 11.4486 19.5513 10.704 18.638 10.2296C18.038 9.9179 17.3878 9.78789 16.647 9.72637C16.645 9.7262 16.6429 9.72603 16.6409 9.72586ZM5.51819 11.7195C4.90328 11.7706 4.55053 11.8657 4.28358 12.0044C3.73565 12.289 3.28889 12.7358 3.00426 13.2837C2.8656 13.5507 2.77043 13.9034 2.71937 14.5183C2.66731 15.1452 2.6665 15.9509 2.6665 17.1066V18.2266C2.6665 19.3824 2.66731 20.1881 2.71937 20.815C2.77043 21.4299 2.8656 21.7826 3.00426 22.0496C3.28889 22.5975 3.73565 23.0443 4.28358 23.3289C4.55053 23.4676 4.90328 23.5627 5.51819 23.6138C6.14506 23.6658 6.95074 23.6666 8.1065 23.6666H13.8932C15.0489 23.6666 15.8546 23.6658 16.4815 23.6138C17.0964 23.5627 17.4491 23.4676 17.7161 23.3289C18.264 23.0443 18.7108 22.5975 18.9954 22.0496C19.1341 21.7826 19.2292 21.4299 19.2803 20.815C19.3324 20.1881 19.3332 19.3824 19.3332 18.2266V17.1066C19.3332 15.9509 19.3324 15.1452 19.2803 14.5183C19.2292 13.9034 19.1341 13.5507 18.9954 13.2837C18.7108 12.7358 18.264 12.289 17.7161 12.0044C17.4491 11.8657 17.0964 11.7706 16.4815 11.7195C15.8546 11.6675 15.0489 11.6666 13.8932 11.6666H8.1065C6.95074 11.6666 6.14506 11.6675 5.51819 11.7195ZM10.9998 15.5C11.5521 15.5 11.9998 15.9477 11.9998 16.5V18.8333C11.9998 19.3856 11.5521 19.8333 10.9998 19.8333C10.4476 19.8333 9.99984 19.3856 9.99984 18.8333V16.5C9.99984 15.9477 10.4476 15.5 10.9998 15.5Z" fill="#5E5B5B"/>
</svg>
