<svg width="24" height="20" viewBox="0 0 24 20" fill="none" xmlns="http://www.w3.org/2000/svg">
<path fill-rule="evenodd" clip-rule="evenodd" d="M2.11399 1.04401C1.67804 0.704937 1.04976 0.783471 0.710694 1.21942C0.371624 1.65537 0.450158 2.28364 0.886105 2.62271L3.68495 4.79959C2.61916 5.96501 1.70731 7.32371 0.970462 8.78702L0.946066 8.83528C0.838532 9.04763 0.711567 9.29835 0.6546 9.60802C0.609335 9.85407 0.609335 10.146 0.6546 10.392C0.711567 10.7017 0.838532 10.9524 0.946065 11.1648L0.970461 11.213C3.21802 15.6764 7.09374 19.1667 12 19.1667C14.6033 19.1667 16.9165 18.1841 18.8502 16.5948L21.8861 18.956C22.3221 19.2951 22.9503 19.2166 23.2894 18.7806C23.6285 18.3447 23.5499 17.7164 23.114 17.3773L2.11399 1.04401ZM17.2242 15.3301L14.8495 13.4831C14.0735 14.1187 13.0813 14.5 12 14.5C9.51476 14.5 7.50004 12.4853 7.50004 10C7.50004 9.31913 7.65127 8.67355 7.92197 8.09505L5.26729 6.0303C4.30397 7.0573 3.45769 8.29458 2.75677 9.68652C2.68658 9.82592 2.65434 9.89092 2.63322 9.94046C2.62622 9.95686 2.62311 9.96558 2.62194 9.96904L2.6217 9.97181C2.62111 9.979 2.62065 9.98879 2.62065 10C2.62065 10.0113 2.62111 10.0211 2.6217 10.0282L2.62194 10.031C2.6231 10.0345 2.62622 10.0432 2.63322 10.0596C2.65434 10.1091 2.68658 10.1741 2.75677 10.3135C4.8195 14.4099 8.14116 17.1667 12 17.1667C13.9005 17.1667 15.6706 16.4981 17.2242 15.3301ZM9.57695 9.38226C9.52673 9.57984 9.50004 9.78682 9.50004 10C9.50004 11.3807 10.6193 12.5 12 12.5C12.4329 12.5 12.8401 12.39 13.1951 12.1964L9.57695 9.38226Z" fill="#5E5B5B"/>
<path d="M10.7398 5.67889L16.4974 10.157C16.4991 10.1049 16.5 10.0526 16.5 10C16.5 7.51474 14.4853 5.50003 12 5.50003C11.5626 5.50003 11.1397 5.56246 10.7398 5.67889Z" fill="#5E5B5B"/>
<path d="M21.2433 10.3135C20.809 11.1761 20.3188 11.9793 19.7795 12.7098L21.3567 13.9365C21.9859 13.0906 22.5455 12.1744 23.0296 11.213L23.054 11.1648C23.1616 10.9524 23.2885 10.7017 23.3455 10.392C23.3908 10.146 23.3908 9.85407 23.3455 9.60802C23.2885 9.29835 23.1616 9.04763 23.054 8.83528L23.0296 8.78702C20.7821 4.32361 16.9063 0.833359 12 0.833359C9.99389 0.833359 8.16005 1.41691 6.53936 2.41192L8.25447 3.74589C9.42072 3.1565 10.6789 2.83336 12 2.83336C15.8589 2.83336 19.1806 5.59017 21.2433 9.68652C21.3135 9.82592 21.3457 9.89092 21.3669 9.94046C21.3739 9.95686 21.377 9.96558 21.3781 9.96903L21.3784 9.97181C21.379 9.979 21.3794 9.98879 21.3794 10C21.3794 10.0113 21.379 10.0211 21.3784 10.0282L21.3781 10.031C21.377 10.0345 21.3739 10.0432 21.3669 10.0596C21.3457 10.1091 21.3135 10.1741 21.2433 10.3135Z" fill="#5E5B5B"/>
</svg>
