<svg width="24" height="20" viewBox="0 0 24 20" fill="none" xmlns="http://www.w3.org/2000/svg">
<path fill-rule="evenodd" clip-rule="evenodd" d="M11.9998 2.83331C8.10869 2.83331 4.76319 5.63715 2.70543 9.78876C2.67675 9.84663 2.65532 9.88989 2.63723 9.92756C2.62076 9.96186 2.61054 9.98433 2.60384 9.99998C2.61054 10.0156 2.62076 10.0381 2.63723 10.0724C2.65532 10.1101 2.67675 10.1533 2.70543 10.2112C4.76319 14.3628 8.10869 17.1666 11.9998 17.1666C15.8909 17.1666 19.2364 14.3628 21.2942 10.2112C21.3229 10.1533 21.3443 10.1101 21.3624 10.0724C21.3789 10.0381 21.3891 10.0156 21.3958 9.99998C21.3891 9.98433 21.3789 9.96186 21.3624 9.92756C21.3443 9.88989 21.3229 9.84663 21.2942 9.78876C19.2364 5.63715 15.8909 2.83331 11.9998 2.83331ZM0.913474 8.90057C3.15323 4.38178 7.05222 0.833313 11.9998 0.833313C16.9474 0.833313 20.8464 4.38178 23.0861 8.90057C23.0933 8.91491 23.1006 8.92961 23.1081 8.94467C23.1987 9.12613 23.3154 9.35987 23.3668 9.64298C23.4078 9.86944 23.4078 10.1305 23.3668 10.357C23.3154 10.6401 23.1987 10.8738 23.1081 11.0553C23.1006 11.0703 23.0933 11.085 23.0861 11.0994C20.8464 15.6182 16.9474 19.1666 11.9998 19.1666C7.05222 19.1666 3.15323 15.6182 0.913474 11.0994C0.906365 11.085 0.899024 11.0703 0.891502 11.0553C0.800914 10.8738 0.684223 10.6401 0.632863 10.357C0.59178 10.1305 0.59178 9.86944 0.632863 9.64298C0.684223 9.35987 0.800915 9.12613 0.891503 8.94468C0.899024 8.92962 0.906365 8.91492 0.913474 8.90057ZM11.9998 7.49998C10.6191 7.49998 9.49981 8.61927 9.49981 9.99998C9.49981 11.3807 10.6191 12.5 11.9998 12.5C13.3805 12.5 14.4998 11.3807 14.4998 9.99998C14.4998 8.61927 13.3805 7.49998 11.9998 7.49998ZM7.49981 9.99998C7.49981 7.5147 9.51453 5.49998 11.9998 5.49998C14.4851 5.49998 16.4998 7.5147 16.4998 9.99998C16.4998 12.4853 14.4851 14.5 11.9998 14.5C9.51453 14.5 7.49981 12.4853 7.49981 9.99998Z" fill="#5E5B5B"/>
</svg>
