<svg width="22" height="22" viewBox="0 0 22 22" fill="none" xmlns="http://www.w3.org/2000/svg">
<path fill-rule="evenodd" clip-rule="evenodd" d="M11 4.58333C9.48122 4.58333 8.25 5.81455 8.25 7.33333C8.25 8.85212 9.48122 10.0833 11 10.0833C12.5188 10.0833 13.75 8.85212 13.75 7.33333C13.75 5.81455 12.5188 4.58333 11 4.58333ZM6.41667 7.33333C6.41667 4.80203 8.4687 2.75 11 2.75C13.5313 2.75 15.5833 4.80203 15.5833 7.33333C15.5833 9.86464 13.5313 11.9167 11 11.9167C8.4687 11.9167 6.41667 9.86464 6.41667 7.33333ZM6.83475 15.3326C5.86836 15.7617 5.5 16.3037 5.5 16.9583C5.5 17.1633 5.53645 17.2794 5.58917 17.3635C5.64193 17.4476 5.7678 17.5902 6.10701 17.7436C6.83203 18.0716 8.26475 18.3333 11 18.3333C13.7353 18.3333 15.168 18.0716 15.893 17.7436C16.2322 17.5902 16.3581 17.4476 16.4108 17.3635C16.4636 17.2794 16.5 17.1633 16.5 16.9583C16.5 16.3037 16.1316 15.7617 15.1653 15.3326C14.173 14.892 12.7161 14.6667 11 14.6667C9.28385 14.6667 7.82702 14.892 6.83475 15.3326ZM6.09072 13.657C7.42082 13.0664 9.17232 12.8333 11 12.8333C12.8277 12.8333 14.5792 13.0664 15.9093 13.657C17.2653 14.2591 18.3333 15.3213 18.3333 16.9583C18.3333 17.3861 18.2552 17.873 17.9642 18.3372C17.6732 18.8014 17.2261 19.1527 16.6487 19.414C15.5404 19.9154 13.7648 20.1667 11 20.1667C8.23525 20.1667 6.45964 19.9154 5.35133 19.414C4.77387 19.1527 4.32682 18.8014 4.03583 18.3372C3.74481 17.873 3.66667 17.3861 3.66667 16.9583C3.66667 15.3213 4.73473 14.2591 6.09072 13.657Z" fill="#5E5B5B"/>
</svg>
